<!-- the emoji '🟠' as svg -->
<svg xmlns="http://www.w3.org/2000/svg" viewBox="0 0 512 512">
  <path fill="#f7e018" d="M256 0C114.84 0 0 114.84 0 256s114.84 256 256 256 256-114.84 256-256S397.16 0 256 0zm0 480C132.48 480 32 379.52 32 256S132.48 32 256 32s224 100.48 224 224-100.48 224-224 224z"/>
  <path fill="#61dafb" d="M256 32v448c123.52 0 224-100.48 224-224S379.52 32 256 32z"/>
  <path fill="#fff" d="M256 32v448c123.52 0 224-100.48 224-224S379.52 32 256 32z"/>
  <path fill="#000" d="M256 32v448c123.52 0 224-100.48 224-224S379.52 32 256 32z"/>
  <path fill="#61dafb" d="M256 32v448c123.52 0 224-100.48 224-224S379.52 32 256 32z"/>
  <path fill="#fff" d="M256 32v448c123.52 0 224-100.48 224-224S379.52 32 256 32z"/>
  <path fill="#000" d="M256 32v448c123.52 0 224-100.48 224-224S379.52 32 256 32z"/>
  <path fill="#61dafb" d="M256 32v448c123.52 0 224-100.48 224-224S379.52 32 256 32z"/>
  <path fill="#fff" d="M256 32v448c123.52 0 224-100.48 224-224S379.52 32 256 32z"/>
  <path fill="#000" d="M256 32 v 448 c 123.52 0 224 -100.48 224 -224 S 379.52 32 256 32 z"/>
</svg>