<svg height="36" viewBox="0 0 48 34" width="36"><g fill="none" fill-rule="nonzero"><path fill="#17B900" d="M16.36.18c-.59.27-.83.67-.83 1.4 0 .52.06.77.4 1.55l.41.94-.44.39c-.24.22-.79.57-1.2.77-1.4.69-2.64.9-5.84.99-3.47.1-4.75.3-6.14.99-.62.3-.94.55-1.55 1.15-.42.42-.86.93-.96 1.13L0 9.86l.77.02c1.26.02 2.57.4 4.5 1.28.4.19.72.38.72.43 0 .05-.13.41-.29.81a25.78 25.78 0 0 0-1.45 5.77c-.18 1.38-.18 1.37.25.72a6.73 6.73 0 0 1 1.85-1.76c1.31-.77 2.86-1.1 5.6-1.2 2.94-.09 4.4-.22 5.39-.47a6.53 6.53 0 0 0 2.64-1.31l.45-.4 4.07 9.64c2.23 5.31 4.18 9.8 4.32 9.98.48.62 1.23.8 1.91.46.54-.25.9-.81.9-1.39 0-.3-1.4-3.73-6.57-15.97C21.44 7.9 18.41.79 18.32.65 18.1.35 17.4 0 17.02 0c-.14 0-.44.08-.66.18Z"></path><path fill="#E44E04" d="M30.55.07c-.29.07-.78.47-.93.76-.07.14-1.15 2.67-2.4 5.63-1.6 3.8-2.25 5.43-2.22 5.6.02.13.4 1.07.85 2.1l.79 1.87.27-.6c.15-.35.38-.86.49-1.16l.21-.53.38.34c.54.47 1.14.84 1.85 1.1 1.3.48 2.09.6 5.26.7 3.64.14 4.84.34 6.22 1.05a6.2 6.2 0 0 1 2.23 1.96c.44.65.44.66.26-.72-.28-2-.82-4.19-1.46-5.77-.16-.4-.29-.76-.29-.81 0-.05.33-.24.73-.43 1.92-.89 3.23-1.26 4.5-1.28.48-.01.74-.06.7-.11-1.17-2.03-3.02-3.12-5.79-3.4a61.8 61.8 0 0 0-2.86-.15 20.7 20.7 0 0 1-4.47-.43 7.23 7.23 0 0 1-2.7-1.32l-.45-.4.44-1.07c.38-.92.43-1.13.4-1.55-.09-1-1-1.63-2-1.38ZM18.88 26.22c-2.69 6.36-2.66 6.28-2.23 7.01a1.55 1.55 0 0 0 2.59.14c.18-.24 3.61-8.15 3.87-8.93.03-.11-1.62-4.07-1.7-4.07-.04 0-1.17 2.63-2.53 5.85Z"></path></g></svg>